# xmcd
#
# Track frame offsets:
#	150
#	14079
#	31784
#	54469
#	72470
#	90480
#	109278
#	127337
#	145231
#	159985
#	177695
#	196520
#	216545
#	227753
#
# Disc length: 3326 seconds
#
# Revision: 4
# Processed by: cddbd v1.5.2PL0 Copyright (c) Steve Scherf et al.
# Submitted via: EasyCDDAExtractor 15.3.0.1
#
DISCID=cf0cfc0e
DTITLE=Gisselle - 8
DYEAR=2001
DGENRE=Latin
TTITLE0=Voy A Quitarme El Anillo (Version Balada)
TTITLE1=Dime
TTITLE2=No Bastara
TTITLE3=Boca
TTITLE4=Aroma De Mujer
TTITLE5=Tu Me Negabas
TTITLE6=Amar A Dos
TTITLE7=Metete
TTITLE8=Con La Misma Moneda
TTITLE9=Voy A Quitarme El Anillo (Version Merengue)
TTITLE10=Quiero
TTITLE11=Aroma De Mujer (Version Merengue) (Bonus Track)
TTITLE12=Voy A Quitarme El Anillo (Version Bachata) (Bonus Track)
TTITLE13=No Bastara (Version Merengue) (Bonus Track)
EXTD=
EXTT0=
EXTT1=
EXTT2=
EXTT3=
EXTT4=
EXTT5=
EXTT6=
EXTT7=
EXTT8=
EXTT9=
EXTT10=
EXTT11=
EXTT12=
EXTT13=
PLAYORDER=
